<?xml version="1.0" encoding="UTF-8"?>
<svg xmlns="http://www.w3.org/2000/svg" xmlns:xlink="http://www.w3.org/1999/xlink" width="340" zoomAndPan="magnify" viewBox="0 0 255 157.5" height="210" preserveAspectRatio="xMidYMid meet" version="1.0">
  <defs>
    <g></g>
  </defs>
  <g fill="#010ed0" fill-opacity="1">
    <g transform="translate(0.406401, 120.123487)">
      <g>
        <path d="M 74.65625 -39.8125 C 74.65625 -31.007812 72.972656 -23.660156 69.609375 -17.765625 C 66.242188 -11.867188 61.367188 -7.429688 54.984375 -4.453125 C 48.609375 -1.484375 40.929688 0 31.953125 0 L 9.828125 0 L 9.828125 -78.140625 L 34.359375 -78.140625 C 42.554688 -78.140625 49.664062 -76.6875 55.6875 -73.78125 C 61.707031 -70.875 66.375 -66.578125 69.6875 -60.890625 C 73 -55.210938 74.65625 -48.1875 74.65625 -39.8125 Z M 57.453125 -39.390625 C 57.453125 -45.160156 56.601562 -49.90625 54.90625 -53.625 C 53.21875 -57.351562 50.722656 -60.109375 47.421875 -61.890625 C 44.128906 -63.671875 40.0625 -64.5625 35.21875 -64.5625 L 26.40625 -64.5625 L 26.40625 -13.6875 L 33.515625 -13.6875 C 41.597656 -13.6875 47.609375 -15.835938 51.546875 -20.140625 C 55.484375 -24.453125 57.453125 -30.867188 57.453125 -39.390625 Z M 57.453125 -39.390625 "></path>
      </g>
    </g>
  </g>
  <g fill="#010ed0" fill-opacity="1">
    <g transform="translate(81.421736, 120.123487)">
      <g>
        <path d="M 9.828125 -78.140625 L 34.15625 -78.140625 C 44.550781 -78.140625 52.421875 -76.675781 57.765625 -73.75 C 63.117188 -70.832031 65.796875 -65.703125 65.796875 -58.359375 C 65.796875 -55.398438 65.320312 -52.726562 64.375 -50.34375 C 63.425781 -47.957031 62.0625 -46 60.28125 -44.46875 C 58.5 -42.9375 56.328125 -41.9375 53.765625 -41.46875 L 53.765625 -40.9375 C 56.367188 -40.40625 58.71875 -39.488281 60.8125 -38.1875 C 62.914062 -36.882812 64.597656 -34.992188 65.859375 -32.515625 C 67.128906 -30.046875 67.765625 -26.757812 67.765625 -22.65625 C 67.765625 -17.914062 66.601562 -13.851562 64.28125 -10.46875 C 61.96875 -7.082031 58.664062 -4.488281 54.375 -2.6875 C 50.082031 -0.894531 44.976562 0 39.0625 0 L 9.828125 0 Z M 26.40625 -47.1875 L 36.015625 -47.1875 C 40.828125 -47.1875 44.160156 -47.941406 46.015625 -49.453125 C 47.867188 -50.972656 48.796875 -53.210938 48.796875 -56.171875 C 48.796875 -59.160156 47.695312 -61.304688 45.5 -62.609375 C 43.3125 -63.910156 39.847656 -64.5625 35.109375 -64.5625 L 26.40625 -64.5625 Z M 26.40625 -34.046875 L 26.40625 -13.6875 L 37.203125 -13.6875 C 42.179688 -13.6875 45.648438 -14.644531 47.609375 -16.5625 C 49.578125 -18.488281 50.5625 -21.070312 50.5625 -24.3125 C 50.5625 -26.238281 50.132812 -27.929688 49.28125 -29.390625 C 48.425781 -30.847656 46.988281 -31.988281 44.96875 -32.8125 C 42.957031 -33.632812 40.1875 -34.046875 36.65625 -34.046875 Z M 26.40625 -34.046875 "></path>
      </g>
    </g>
  </g>
  <g fill="#010ed0" fill-opacity="1">
    <g transform="translate(154.955444, 120.123487)">
      <g>
        <path d="M 9.828125 0 L 9.828125 -78.140625 L 26.40625 -78.140625 L 26.40625 0 Z M 9.828125 0 "></path>
      </g>
    </g>
  </g>
  <g fill="#010ed0" fill-opacity="1">
    <g transform="translate(191.187896, 120.123487)">
      <g>
        <path d="M 60.765625 0 L 2.625 0 L 2.625 -10.75 L 40.078125 -64.453125 L 3.640625 -64.453125 L 3.640625 -78.140625 L 59.75 -78.140625 L 59.75 -67.453125 L 22.34375 -13.6875 L 60.765625 -13.6875 Z M 60.765625 0 "></path>
      </g>
    </g>
  </g>
</svg>
