<?xml version="1.0" encoding="utf-8"?>
<!-- Generator: Adobe Illustrator 21.0.2, SVG Export Plug-In . SVG Version: 6.00 Build 0)  -->
<svg version="1.1" id="Layer_1" xmlns="http://www.w3.org/2000/svg" xmlns:xlink="http://www.w3.org/1999/xlink" x="0px" y="0px"
	 viewBox="0 0 262.0957 48.2334" style="enable-background:new 0 0 262.0957 48.2334;" xml:space="preserve">
<style type="text/css">
	.st0{fill:#FFFFFF;}
</style>
<g>
	<path class="st0" d="M259.5299,13.0312h-6.7124v12.1725h-3.3846V13.0312h-6.6844v-2.6413h16.7815V13.0312z"/>
	<path class="st0" d="M239.4571,12.953H228.119v3.9044h6.1204v2.6985h-6.1204v5.6272h-3.3846V10.3693h14.7227V12.953z"/>
	<g>
		<g>
			<path class="st0" d="M75.6003,12.6359h-4.8988c-0.0169-0.5734-0.2272-0.9897-0.6324-1.2479
				c-0.4052-0.2582-1.0622-0.3873-1.9707-0.3873h-1.2281c-1.1212,0-1.862,0.205-2.2222,0.615
				c-0.3602,0.41-0.5406,1.3973-0.5406,2.9629v3.0122c0,1.5487,0.1803,2.5282,0.5406,2.9382s1.1009,0.6145,2.2222,0.6145h1.363
				c0.966,0,1.6391-0.1354,2.0201-0.4057c0.3805-0.2703,0.5705-0.7378,0.5705-1.4017v-0.7132h-2.7995v-3.4174h7.576v3.1225
				c0,2.4755-0.5425,4.2804-1.627,5.4157c-1.0845,1.1353-2.7975,1.7029-5.1386,1.7029h-3.3275
				c-2.0626,0-3.6263-0.6537-4.6904-1.9611c-1.0642-1.3074-1.596-3.2351-1.596-5.7846v-2.7782c0-2.8522,0.5609-4.9361,1.6821-6.2517
				c1.1217-1.3156,2.8938-1.9732,5.3166-1.9732h2.6646c1.9645,0,3.575,0.4898,4.8316,1.4689
				c1.2566,0.9796,1.8847,2.2111,1.8847,3.6944V12.6359z"/>
			<path class="st0" d="M78.4858,25.2253v-4.352c0-1.3113,0.2451-2.3648,0.7364-3.1597c0.4912-0.7949,1.2358-1.3359,2.2347-1.6231
				l5.3291-1.6105c0.5647-0.1721,0.9409-0.3665,1.1295-0.5836c0.1881-0.2171,0.2824-0.543,0.2824-0.9776V12.181
				c0-0.6716-0.1557-1.1372-0.4666-1.3954c-0.3114-0.2582-0.8597-0.3873-1.6454-0.3873h-0.8103c-0.778,0-1.32,0.1334-1.627,0.3999
				c-0.307,0.2664-0.4603,0.7272-0.4603,1.3828v1.0328h-4.5309v-1.6352c0-1.5733,0.4912-2.7801,1.4732-3.6205
				c0.9825-0.8398,2.3948-1.26,4.2364-1.26h2.6646c1.8088,0,3.2308,0.424,4.2664,1.2721c1.0357,0.8485,1.5535,2.0104,1.5535,3.4856
				v1.5124c0,1.3441-0.2785,2.4262-0.835,3.2457c-0.557,0.8195-1.3959,1.3809-2.5171,1.684l-5.1817,1.3896
				c-0.4095,0.1146-0.6875,0.2519-0.835,0.4115c-0.147,0.16-0.221,0.4081-0.221,0.7441v0.7253h9.4544v4.0571H78.4858z"/>
		</g>
		<path class="st0" d="M23.8804,0.2361C10.6912,0.2361,0,10.9273,0,24.1167C0,37.306,10.6912,47.9973,23.8804,47.9973
			c13.1888,0,23.8801-10.6912,23.8801-23.8806C47.7605,10.9273,37.0692,0.2361,23.8804,0.2361z M17.1477,38.8139
			c0,0,0-6.2434-6.0126-4.4711L21.5408,27.56L17.1477,38.8139z M27.3979,33.0569c0,0,0-13.114-12.6284-9.3905L36.6263,9.419
			L27.3979,33.0569z"/>
		<path class="st0" d="M117.5938,10.3407h-8.1848v14.8424h-4.1267V10.3407h-8.1507V7.1201h20.4622V10.3407z"/>
		<path class="st0" d="M132.8565,25.2224h-14.8042V10.6338h14.6655v2.4881h-11.3325v3.2512h6.6105v2.4881h-6.6105v3.6187h11.4712
			V25.2224z"/>
		<path class="st0" d="M151.688,21.7733c0,1.3568-0.2549,2.2714-0.7639,2.7422c-0.5097,0.4715-1.44,0.7069-2.7914,0.7069h-8.5548
			c-1.3522,0-2.2824-0.2354-2.7914-0.7069c-0.5097-0.4708-0.7639-1.3855-0.7639-2.7422v-7.6904
			c0-1.3568,0.2542-2.2711,0.7639-2.7422c0.509-0.4711,1.4393-0.7069,2.7914-0.7069h8.5548c1.7033,0,2.7589,0.4057,3.1663,1.2159
			c0.2591,0.4711,0.389,1.6775,0.389,3.6187l-3.3334,0.5373v-2.7709h-8.9991v9.2451h8.9991v-3.138l3.3334,0.7065V21.7733z"/>
		<path class="st0" d="M171.9638,25.2224h-3.3606v-6.2767h-10.416v6.2767h-3.333V10.6338h3.333v5.6544h10.416v-5.6544h3.3606
			V25.2224z"/>
		<path class="st0" d="M197.9847,20.9124c0,1.6803-0.3214,2.8126-0.9629,3.3955c-0.642,0.5836-1.8001,0.8753-3.4732,0.8753h-10.9709
			c-1.8112,0-3.0035-0.3265-3.5764-0.98c-0.5733-0.6531-0.8598-1.9136-0.8598-3.7807l3.6454-0.7701v2.1354h12.5523v-4.1307h-11.0736
			c-1.6739,0-2.8261-0.2916-3.4562-0.8753c-0.6309-0.5828-0.9459-1.7152-0.9459-3.3955v-1.9953c0-1.6803,0.315-2.8118,0.9459-3.3955
			c0.6301-0.5832,1.7822-0.8753,3.4562-0.8753h10.0765c1.6962,0,2.8543,0.2976,3.4733,0.8927
			c0.6189,0.5951,0.9284,1.745,0.9284,3.4479l-3.6454,0.8753v-2.0651h-11.6239v3.8855h11.074c1.6731,0,2.8313,0.292,3.4732,0.8753
			c0.6416,0.5836,0.9629,1.7152,0.9629,3.3955V20.9124z"/>
		<path class="st0" d="M220.4529,21.6804c0,1.3782-0.2586,2.3067-0.7754,2.7848c-0.5176,0.4788-1.4623,0.7179-2.8346,0.7179
			h-10.7176c-1.373,0-2.3178-0.239-2.8346-0.7179c-0.5176-0.4781-0.7758-1.4066-0.7758-2.7848v-7.8088
			c0-1.3778,0.2582-2.306,0.7758-2.7848c0.5168-0.4781,1.4616-0.7175,2.8346-0.7175h10.7176c1.3723,0,2.317,0.2394,2.8346,0.7175
			c0.5168,0.4788,0.7754,1.407,0.7754,2.7848V21.6804z M217.0686,22.3983v-9.3877h-11.1691v9.3877H217.0686z"/>
		<g>
			<path class="st0" d="M62.3093,31.5482h1.2716L62.0976,42.456h-1.2711L62.3093,31.5482z"/>
			<path class="st0" d="M65.2906,36.9557c0.0503-0.3278,0.0832-0.6363,0.0986-0.9245c0.015-0.2872,0.0425-0.5493,0.0832-0.7852
				h1.1198c-0.03,0.1953-0.0527,0.3907-0.0682,0.585c-0.015,0.1953-0.0377,0.3955-0.0682,0.6015h0.0305
				c0.1006-0.175,0.2345-0.3443,0.4013-0.5086c0.1663-0.1644,0.3602-0.3104,0.5826-0.439c0.2214-0.1286,0.4637-0.2311,0.7262-0.3085
				c0.2625-0.0764,0.5396-0.1151,0.8326-0.1151c0.3834,0,0.6987,0.0484,0.9457,0.146c0.2471,0.0977,0.4468,0.2156,0.5981,0.3549
				c0.1513,0.1383,0.2645,0.2872,0.3404,0.4468c0.0754,0.1586,0.1334,0.2998,0.1741,0.4235
				c0.323-0.4313,0.6706-0.7678,1.0444-1.0095c0.3733-0.2408,0.8321-0.3617,1.377-0.3617c0.5048,0,0.9206,0.0687,1.2489,0.2079
				c0.3278,0.1383,0.5773,0.3385,0.7489,0.6005c0.1716,0.2621,0.2775,0.5802,0.3181,0.9554c0.0401,0.3752,0.03,0.7929-0.0305,1.2552
				l-0.5904,4.3757h-1.1802l0.5749-4.3138c0.0401-0.2466,0.0503-0.4874,0.0305-0.7243c-0.0203-0.2359-0.0836-0.4468-0.1895-0.6315
				s-0.2625-0.3336-0.469-0.4468c-0.2069-0.1131-0.482-0.1692-0.8249-0.1692c-0.2524,0-0.4946,0.0513-0.7262,0.1538
				c-0.2326,0.1025-0.4443,0.2466-0.6358,0.4313c-0.1919,0.1847-0.3559,0.4081-0.4917,0.6701
				c-0.1363,0.2621-0.2248,0.5522-0.265,0.8703l-0.5599,4.16h-1.1807l0.5449-4.0827c0.1107-0.8007,0.0832-1.3683-0.0832-1.7019
				c-0.1668-0.3336-0.4922-0.5009-0.9762-0.5009c-0.7668,0-1.3601,0.2563-1.7783,0.7697c-0.4192,0.5144-0.6837,1.1817-0.7949,2.0027
				l-0.469,3.5131h-1.1807L65.2906,36.9557z"/>
			<path class="st0" d="M78.2006,36.1705c0.424-0.38,0.8954-0.6595,1.4152-0.8394c0.5198-0.1799,1.0366-0.2698,1.5516-0.2698
				c1.0492,0,1.773,0.2514,2.1719,0.7543c0.3984,0.5038,0.527,1.2687,0.3858,2.2957l-0.424,3.0963
				c-0.03,0.206-0.0503,0.4187-0.0604,0.6392c-0.0102,0.2214-0.0102,0.4245,0,0.6092h-1.1353c-0.0203-0.1644-0.0203-0.3472,0-0.5473
				c0.0203-0.2002,0.0406-0.3771,0.0609-0.5309h-0.0305c-0.2824,0.3694-0.6334,0.6721-1.0516,0.909
				c-0.4192,0.236-0.9008,0.3539-1.4457,0.3539c-0.3631,0-0.6962-0.0464-0.9989-0.1383c-0.3027-0.0928-0.5623-0.2292-0.7794-0.409
				c-0.2171-0.1789-0.3781-0.4023-0.484-0.6701c-0.1064-0.2669-0.1339-0.5744-0.0836-0.9245
				c0.0807-0.5947,0.2954-1.0627,0.6435-1.4012c0.3481-0.3394,0.7591-0.5908,1.2334-0.7552
				c0.4738-0.1644,0.9733-0.2669,1.4984-0.3075c0.5246-0.0416,1.0038-0.0619,1.4375-0.0619h0.4545l0.03-0.2156
				c0.0706-0.5241-0.03-0.9196-0.3027-1.1865c-0.2722-0.2669-0.6861-0.4003-1.2411-0.4003c-0.3834,0-0.7668,0.0638-1.1502,0.1924
				c-0.3834,0.1286-0.7364,0.3259-1.0593,0.5928L78.2006,36.1705z M81.2428,38.9893c-0.7567,0-1.3722,0.1083-1.8465,0.3239
				c-0.4743,0.2156-0.7465,0.5696-0.8171,1.0627c-0.0604,0.4526,0.0454,0.7726,0.3177,0.9631
				c0.2727,0.1895,0.6305,0.2843,1.0748,0.2843c0.3428,0,0.6508-0.059,0.923-0.177c0.2727-0.118,0.5096-0.2746,0.7112-0.47
				c0.2021-0.1944,0.366-0.4235,0.4922-0.6856c0.1257-0.2611,0.2142-0.5415,0.265-0.8394l0.0604-0.4622H81.2428z"/>
			<path class="st0" d="M92.3967,42.1321c-0.1716,1.3151-0.6358,2.3131-1.3925,2.9967c-0.7567,0.6827-1.7609,1.0241-3.0117,1.0241
				c-0.6962,0-1.3117-0.1025-1.8465-0.3075c-0.5348-0.206-1.0192-0.5599-1.4529-1.0637l0.9839-0.9854
				c0.323,0.41,0.6784,0.7214,1.0671,0.9322c0.3883,0.2098,0.8548,0.3152,1.3997,0.3152c0.5246,0,0.9709-0.0793,1.3393-0.2388
				c0.3684-0.1596,0.6735-0.3752,0.9157-0.6469s0.4264-0.5831,0.5526-0.9322c0.1257-0.3491,0.2142-0.7136,0.265-1.0937
				l0.1359-0.9245h-0.03c-0.3534,0.4622-0.7697,0.8016-1.2489,1.0173c-0.4792,0.2156-0.9559,0.323-1.4302,0.323
				c-0.5551,0-1.0516-0.0919-1.4906-0.2766c-0.439-0.1857-0.8021-0.4419-1.0898-0.7707c-0.2877-0.3288-0.4917-0.7185-0.6131-1.171
				c-0.1209-0.4516-0.146-0.9448-0.0754-1.4785c0.0807-0.586,0.2422-1.114,0.4845-1.5868c0.2418-0.4719,0.5522-0.8703,0.9307-1.1942
				c0.3781-0.323,0.8094-0.5725,1.2938-0.7465c0.4845-0.175,1.0086-0.2621,1.5738-0.2621c0.4845,0,0.9462,0.1151,1.3852,0.3462
				c0.4385,0.2311,0.7436,0.5879,0.9153,1.0705h0.0305l0.1818-1.232h1.1802L92.3967,42.1321z M86.6454,38.851
				c-0.0503,0.3694-0.03,0.7107,0.0604,1.0241c0.0909,0.3133,0.2321,0.586,0.424,0.8171c0.1915,0.2311,0.4313,0.4129,0.719,0.5464
				s0.6024,0.2002,0.9457,0.2002c0.4037,0,0.7721-0.0716,1.1048-0.2156c0.3331-0.1431,0.6232-0.3355,0.8703-0.5773
				c0.2471-0.2417,0.4468-0.5183,0.5981-0.8316s0.2519-0.645,0.3027-0.9941c0.0503-0.3907,0.0377-0.7475-0.0382-1.0705
				c-0.0754-0.3239-0.2094-0.6034-0.4008-0.8394c-0.1919-0.2369-0.4342-0.4187-0.7267-0.5473
				c-0.2925-0.1286-0.6257-0.1924-0.9989-0.1924s-0.7214,0.0696-1.0439,0.2079c-0.3235,0.1383-0.6107,0.3288-0.8631,0.5696
				c-0.2524,0.2418-0.4613,0.5241-0.6281,0.8481C86.8045,38.119,86.6957,38.471,86.6454,38.851z"/>
			<path class="st0" d="M95.6356,35.2461h1.1807l-0.9839,7.21h-1.1807L95.6356,35.2461z M95.7415,32.4272
				c0.0305-0.2369,0.1412-0.4419,0.3331-0.6169c0.1915-0.1741,0.4086-0.2621,0.6508-0.2621s0.4337,0.088,0.5749,0.2621
				c0.1412,0.175,0.1968,0.38,0.1668,0.6169c-0.0305,0.2563-0.1388,0.4671-0.3254,0.6315
				c-0.1871,0.1644-0.4066,0.2466-0.6585,0.2466c-0.2524,0-0.4463-0.0822-0.5826-0.2466
				C95.7642,32.8943,95.7115,32.6835,95.7415,32.4272z"/>
			<path class="st0" d="M98.9196,36.9557c0.0503-0.3278,0.0832-0.6363,0.0986-0.9245c0.015-0.2872,0.0425-0.5493,0.0832-0.7852
				h1.1198c-0.03,0.1953-0.0527,0.3907-0.0682,0.585c-0.015,0.1953-0.0377,0.3955-0.0682,0.6015h0.0305
				c0.1006-0.175,0.2345-0.3443,0.4013-0.5086c0.1663-0.1644,0.3602-0.3104,0.5826-0.439c0.2214-0.1286,0.4637-0.2311,0.7262-0.3085
				c0.2625-0.0764,0.5396-0.1151,0.8326-0.1151c0.4637,0,0.8548,0.0716,1.173,0.2156c0.3177,0.1441,0.5696,0.3443,0.7567,0.6005
				c0.1866,0.2572,0.3104,0.5676,0.3708,0.9322c0.0604,0.3646,0.0604,0.763,0,1.1942l-0.6053,4.4521h-1.1807l0.5904-4.3293
				c0.0807-0.6053,0.0126-1.083-0.2045-1.4331c-0.2171-0.3481-0.6029-0.5232-1.1575-0.5232c-0.7668,0-1.3601,0.2563-1.7783,0.7697
				c-0.4192,0.5144-0.6837,1.1817-0.7949,2.0027l-0.469,3.5131h-1.1807L98.9196,36.9557z"/>
			<path class="st0" d="M107.7942,34.6813c0.5241-0.469,1.1072-0.8162,1.7503-1.0386c0.6426-0.2214,1.2822-0.3326,1.9185-0.3326
				c1.2977,0,2.1932,0.3114,2.6863,0.9332c0.4927,0.6227,0.6518,1.5694,0.4772,2.8391l-0.5241,3.8303
				c-0.0372,0.2543-0.0624,0.5173-0.0749,0.79c-0.0126,0.2737-0.0126,0.5241,0,0.7533h-1.4041
				c-0.0251-0.2031-0.0251-0.4294,0-0.6769c0.0251-0.2476,0.0498-0.4671,0.0749-0.6576h-0.0372
				c-0.3496,0.4574-0.7833,0.8326-1.3011,1.1246c-0.5178,0.292-1.1135,0.4381-1.7875,0.4381c-0.4492,0-0.8611-0.0571-1.2353-0.1712
				c-0.3747-0.1141-0.6962-0.2824-0.9641-0.5048c-0.2688-0.2224-0.468-0.499-0.5991-0.8287c-0.131-0.3307-0.1658-0.7117-0.103-1.144
				c0.0996-0.7359,0.365-1.3142,0.7954-1.7338c0.4308-0.4187,0.939-0.7301,1.5259-0.9332c0.586-0.2031,1.2039-0.3307,1.8528-0.381
				c0.6489-0.0513,1.2416-0.0764,1.7783-0.0764h0.5618l0.0372-0.2669c0.0875-0.6479-0.0372-1.1372-0.3742-1.4669
				c-0.337-0.3307-0.8485-0.4961-1.5351-0.4961c-0.4743,0-0.9482,0.0803-1.4225,0.2388s-0.9109,0.4032-1.3103,0.733
				L107.7942,34.6813z M111.5568,38.1683c-0.9361,0-1.6976,0.1334-2.2841,0.4003c-0.5865,0.2669-0.9235,0.7049-1.0105,1.3151
				c-0.0749,0.5589,0.0561,0.9554,0.3931,1.1904s0.7794,0.353,1.3291,0.353c0.424,0,0.8045-0.0735,1.1415-0.2195
				c0.337-0.146,0.63-0.3394,0.88-0.5812c0.2495-0.2408,0.4521-0.5241,0.6082-0.8481c0.1562-0.3239,0.265-0.6692,0.3278-1.0386
				l0.0749-0.5715H111.5568z"/>
			<path class="st0" d="M122.0744,37.0486c-0.2021-0.3085-0.4419-0.5319-0.719-0.6701c-0.278-0.1383-0.5933-0.2079-0.9462-0.2079
				c-0.3936,0-0.7489,0.0696-1.0671,0.2079c-0.3177,0.1383-0.5952,0.3307-0.8321,0.5773c-0.2374,0.2466-0.4264,0.5319-0.5676,0.8558
				c-0.1412,0.323-0.2374,0.6701-0.2877,1.0395c-0.0503,0.3694-0.0401,0.7165,0.0305,1.0395
				c0.0706,0.3239,0.1939,0.6082,0.3708,0.8548c0.1765,0.2466,0.4008,0.439,0.6735,0.5783
				c0.2722,0.1383,0.5904,0.2079,0.9535,0.2079c0.7663,0,1.4075-0.2978,1.9219-0.8935l0.7567,0.8471
				c-0.3936,0.4003-0.835,0.6933-1.3243,0.878c-0.4893,0.1847-0.9912,0.2775-1.5056,0.2775c-0.5449,0-1.0318-0.0928-1.4607-0.2775
				c-0.4289-0.1847-0.7794-0.4468-1.0516-0.7852c-0.2727-0.3394-0.4671-0.7398-0.5831-1.202
				c-0.116-0.4622-0.1334-0.9709-0.0527-1.525c0.0706-0.5444,0.2268-1.0473,0.469-1.5095c0.2422-0.4622,0.5473-0.8635,0.9157-1.202
				c0.3684-0.3394,0.7896-0.6034,1.2639-0.7929c0.4738-0.1905,0.9834-0.2853,1.5284-0.2853c0.5246,0,1.0091,0.0919,1.4529,0.2775
				c0.4439,0.1847,0.8176,0.4719,1.1203,0.8626L122.0744,37.0486z"/>
			<path class="st0" d="M128.3097,36.2624h-2.0882l-0.4845,3.605c-0.0305,0.2369-0.0532,0.4545-0.0682,0.6547
				c-0.015,0.2002,0,0.3752,0.0454,0.5241c0.0454,0.1489,0.1334,0.2669,0.265,0.3539c0.131,0.088,0.3278,0.1315,0.5904,0.1315
				c0.1712,0,0.3501-0.0203,0.5372-0.0619c0.1866-0.0406,0.3655-0.1025,0.5372-0.1847l-0.1059,1.0937
				c-0.2118,0.0928-0.4443,0.1596-0.6962,0.2002c-0.2524,0.0416-0.4893,0.0619-0.7112,0.0619c-0.424,0-0.7543-0.0571-0.9912-0.1692
				c-0.2374-0.1131-0.4115-0.2727-0.5222-0.4777c-0.1112-0.206-0.1692-0.4593-0.1741-0.763
				c-0.0053-0.3027,0.0174-0.6392,0.0677-1.0086l0.5299-3.9599h-1.5438l0.1513-1.0163h1.5438l0.2727-2.0491h1.1802l-0.2722,2.0491
				h2.0882L128.3097,36.2624z"/>
			<path class="st0" d="M130.0198,35.2461h1.1802l-0.9834,7.21h-1.1807L130.0198,35.2461z M130.1257,32.4272
				c0.0305-0.2369,0.1412-0.4419,0.3331-0.6169c0.1915-0.1741,0.4086-0.2621,0.6503-0.2621c0.2427,0,0.4342,0.088,0.5754,0.2621
				c0.1412,0.175,0.1963,0.38,0.1663,0.6169c-0.03,0.2563-0.1383,0.4671-0.3249,0.6315c-0.1876,0.1644-0.4071,0.2466-0.6585,0.2466
				c-0.2524,0-0.4463-0.0822-0.5826-0.2466C130.1484,32.8943,130.0957,32.6835,130.1257,32.4272z"/>
			<path class="st0" d="M132.638,38.851c0.0706-0.5647,0.234-1.0782,0.4912-1.5404c0.2572-0.4622,0.5754-0.8606,0.9535-1.1942
				c0.3791-0.3336,0.8123-0.5928,1.3016-0.7775c0.4893-0.1857,1.0066-0.2775,1.552-0.2775c0.5444,0,1.0366,0.0919,1.4756,0.2775
				c0.438,0.1847,0.8017,0.4439,1.0888,0.7775c0.2882,0.3336,0.4951,0.732,0.6208,1.1942c0.1267,0.4622,0.1538,0.9757,0.0832,1.5404
				c-0.0803,0.5647-0.2475,1.0782-0.499,1.5404c-0.2524,0.4622-0.5676,0.8606-0.9457,1.1942
				c-0.3791,0.3336-0.8123,0.5928-1.3016,0.7775c-0.4903,0.1847-1.0067,0.2775-1.552,0.2775c-0.5444,0-1.0366-0.0928-1.4756-0.2775
				c-0.439-0.1847-0.8016-0.4439-1.0898-0.7775c-0.2872-0.3336-0.497-0.732-0.6276-1.1942
				C132.5819,39.9293,132.5568,39.4158,132.638,38.851z M133.9086,38.851c-0.0503,0.38-0.0397,0.732,0.0309,1.055
				c0.0706,0.3239,0.1992,0.6063,0.3858,0.8471c0.1866,0.2417,0.4255,0.4313,0.7185,0.5705
				c0.293,0.1383,0.6305,0.2079,1.0144,0.2079c0.3829,0,0.7388-0.0696,1.0666-0.2079c0.3278-0.1392,0.616-0.3288,0.8626-0.5705
				c0.2476-0.2408,0.4545-0.5231,0.6208-0.8471c0.1663-0.323,0.2746-0.675,0.3259-1.055c0.0503-0.38,0.0396-0.732-0.0309-1.055
				c-0.0706-0.3239-0.1992-0.6063-0.3858-0.8481c-0.1866-0.2408-0.4265-0.4313-0.7185-0.5696
				c-0.293-0.1383-0.6305-0.2079-1.0144-0.2079c-0.3839,0-0.7388,0.0696-1.0666,0.2079c-0.3288,0.1383-0.616,0.3288-0.8626,0.5696
				c-0.2475,0.2418-0.4545,0.5241-0.6208,0.8481C134.0682,38.119,133.9589,38.471,133.9086,38.851z"/>
			<path class="st0" d="M142.2935,36.9557c0.0503-0.3278,0.0832-0.6363,0.0986-0.9245c0.0145-0.2872,0.0426-0.5493,0.0832-0.7852
				h1.1198c-0.03,0.1953-0.0532,0.3907-0.0687,0.585c-0.0145,0.1953-0.0377,0.3955-0.0677,0.6015h0.03
				c0.1006-0.175,0.235-0.3443,0.4013-0.5086c0.1663-0.1644,0.3607-0.3104,0.5831-0.439c0.2214-0.1286,0.4632-0.2311,0.7262-0.3085
				c0.2621-0.0764,0.5396-0.1151,0.8326-0.1151c0.4642,0,0.8548,0.0716,1.173,0.2156s0.5696,0.3443,0.7562,0.6005
				c0.1866,0.2572,0.3104,0.5676,0.3713,0.9322c0.06,0.3646,0.06,0.763,0,1.1942l-0.6053,4.4521h-1.1807l0.5899-4.3293
				c0.0812-0.6053,0.0126-1.083-0.204-1.4331c-0.2166-0.3481-0.6034-0.5232-1.1575-0.5232c-0.7668,0-1.3606,0.2563-1.7783,0.7697
				c-0.4197,0.5144-0.6837,1.1817-0.7949,2.0027l-0.469,3.5131h-1.1807L142.2935,36.9557z"/>
			<path class="st0" d="M157.5035,38.3424c-0.1305,0.2572-0.2118,0.5135-0.2417,0.7707c-0.03,0.205,0.0754,0.3075,0.3181,0.3075
				c0.2417,0,0.5019-0.0948,0.7794-0.2843c0.2775-0.1905,0.5396-0.4419,0.7871-0.7552c0.2466-0.3133,0.4613-0.6701,0.6431-1.0705
				c0.1818-0.4003,0.3027-0.8171,0.3626-1.2484c0.0812-0.6053,0.0406-1.1527-0.1209-1.64c-0.1615-0.4883-0.411-0.9041-0.7494-1.2484
				c-0.3375-0.3433-0.7407-0.6082-1.2107-0.7929c-0.469-0.1847-0.966-0.2775-1.4902-0.2775c-0.6566,0-1.2842,0.1305-1.8847,0.3926
				c-0.6005,0.2621-1.1401,0.616-1.6197,1.0627c-0.4787,0.4468-0.88,0.9689-1.203,1.5646c-0.323,0.5957-0.5299,1.2223-0.6198,1.8789
				c-0.0909,0.6885-0.0532,1.3306,0.1131,1.9263c0.1663,0.5957,0.4332,1.114,0.8017,1.5559c0.3684,0.441,0.8181,0.7881,1.347,1.0395
				c0.5299,0.2514,1.1072,0.3771,1.7329,0.3771c0.3733,0,0.7494-0.0435,1.1275-0.1305c0.3791-0.087,0.7446-0.2127,1.0975-0.3781
				c0.353-0.1634,0.6866-0.3617,0.9989-0.5928c0.3123-0.2311,0.5899-0.4854,0.8326-0.762h0.9535
				c-0.3027,0.4206-0.646,0.7978-1.0289,1.1314c-0.3839,0.3346-0.7978,0.6169-1.2416,0.8481
				c-0.4439,0.2311-0.908,0.4081-1.3925,0.5309c-0.4835,0.1238-0.9738,0.1857-1.4679,0.1857c-0.7968,0-1.5182-0.1499-2.1642-0.4468
				c-0.646-0.2978-1.1884-0.7069-1.6265-1.2252c-0.439-0.5183-0.7572-1.1246-0.9535-1.818
				c-0.1973-0.6933-0.2398-1.4399-0.1286-2.2415c0.1102-0.8007,0.3626-1.5501,0.7562-2.2492c0.3936-0.6982,0.88-1.3045,1.4602-1.818
				s1.2358-0.9187,1.9678-1.2165c0.731-0.2978,1.4853-0.4468,2.2628-0.4468c0.6962,0,1.3364,0.1151,1.9224,0.3462
				c0.585,0.2311,1.0821,0.5551,1.4902,0.9709c0.409,0.4158,0.7088,0.9138,0.9003,1.494c0.1924,0.5802,0.2427,1.2146,0.1518,1.9031
				c-0.0909,0.6672-0.2901,1.2735-0.5976,1.818c-0.3085,0.5444-0.6663,1.0115-1.0743,1.4012
				c-0.409,0.3907-0.8355,0.6933-1.2793,0.909c-0.4438,0.2156-0.8423,0.3239-1.1952,0.3239c-0.263,0-0.4748-0.0822-0.6363-0.2466
				s-0.2272-0.4216-0.1963-0.7707h-0.0309c-0.2717,0.2775-0.5647,0.5164-0.8771,0.7165c-0.3133,0.2002-0.6962,0.3007-1.1507,0.3007
				c-0.323,0-0.6073-0.0619-0.8548-0.1847c-0.2476-0.1238-0.4487-0.293-0.6053-0.5086c-0.1566-0.2156-0.2679-0.4671-0.3326-0.7552
				c-0.0658-0.2872-0.0735-0.6005-0.0232-0.9399c0.0706-0.5338,0.2272-1.0627,0.469-1.5859
				c0.2427-0.5241,0.5454-0.9912,0.908-1.4022c0.3636-0.411,0.7794-0.7417,1.2494-0.9941c0.469-0.2514,0.9709-0.3771,1.5056-0.3771
				c0.353,0,0.6663,0.0948,0.938,0.2853c0.2727,0.1895,0.4593,0.5154,0.5599,0.9776h0.0309l0.4081-0.9699h0.9844L157.5035,38.3424z
				 M153.4179,37.9421c-0.0512,0.4313,0.0271,0.7852,0.234,1.0627s0.5019,0.4158,0.8858,0.4158c0.3326,0,0.6556-0.1102,0.968-0.3307
				c0.3133-0.2205,0.5986-0.4951,0.8558-0.8249c0.2572-0.3278,0.4709-0.6827,0.6431-1.0627c0.1712-0.38,0.2775-0.7291,0.3181-1.0473
				c0.03-0.1953,0.0251-0.38-0.0155-0.5551c-0.0406-0.1741-0.1083-0.3278-0.204-0.4622c-0.0967-0.1325-0.2118-0.2379-0.3481-0.3152
				c-0.1363-0.0774-0.2853-0.116-0.4467-0.116c-0.353,0-0.6943,0.1054-1.0212,0.3162c-0.3288,0.2108-0.6237,0.4777-0.8858,0.8007
				c-0.2621,0.3239-0.4816,0.673-0.6585,1.0482C153.5659,37.2468,153.4576,37.6026,153.4179,37.9421z"/>
			<path class="st0" d="M169.6722,42.456h-1.1652l-1.2561-5.5458h-0.03l-2.5432,5.5458h-1.2107l-1.3171-7.21h1.3016l0.8635,5.5458
				h0.03l2.5877-5.5458h1.2416l1.1043,5.5458h0.03l2.3614-5.5458h1.2716L169.6722,42.456z"/>
			<path class="st0" d="M173.3643,38.851c0.0706-0.5647,0.235-1.0782,0.4922-1.5404c0.2572-0.4622,0.5754-0.8606,0.9535-1.1942
				c0.3781-0.3336,0.8123-0.5928,1.3016-0.7775c0.4893-0.1857,1.0067-0.2775,1.5511-0.2775c0.5454,0,1.0366,0.0919,1.4756,0.2775
				c0.439,0.1847,0.8026,0.4439,1.0898,0.7775c0.2882,0.3336,0.4941,0.732,0.6208,1.1942c0.1257,0.4622,0.1537,0.9757,0.0832,1.5404
				c-0.0812,0.5647-0.2476,1.0782-0.499,1.5404c-0.2524,0.4622-0.5676,0.8606-0.9467,1.1942
				c-0.3781,0.3336-0.8123,0.5928-1.3016,0.7775c-0.4893,0.1847-1.0057,0.2775-1.5511,0.2775c-0.5444,0-1.0366-0.0928-1.4756-0.2775
				c-0.439-0.1847-0.8017-0.4439-1.0898-0.7775c-0.2872-0.3336-0.497-0.732-0.6276-1.1942
				C173.3091,39.9293,173.284,39.4158,173.3643,38.851z M174.6359,38.851c-0.0503,0.38-0.0406,0.732,0.03,1.055
				c0.0706,0.3239,0.1992,0.6063,0.3868,0.8471c0.1857,0.2417,0.4255,0.4313,0.7185,0.5705
				c0.292,0.1383,0.6305,0.2079,1.0144,0.2079c0.3829,0,0.7388-0.0696,1.0666-0.2079c0.3278-0.1392,0.615-0.3288,0.8626-0.5705
				c0.2475-0.2408,0.4545-0.5231,0.6208-0.8471c0.1663-0.323,0.2746-0.675,0.3249-1.055c0.0503-0.38,0.0406-0.732-0.03-1.055
				c-0.0706-0.3239-0.1992-0.6063-0.3858-0.8481c-0.1866-0.2408-0.4264-0.4313-0.7195-0.5696
				c-0.292-0.1383-0.6305-0.2079-1.0134-0.2079c-0.3839,0-0.7398,0.0696-1.0676,0.2079c-0.3278,0.1383-0.615,0.3288-0.8626,0.5696
				c-0.2466,0.2418-0.4535,0.5241-0.6199,0.8481C174.7944,38.119,174.6862,38.471,174.6359,38.851z"/>
			<path class="st0" d="M183.0208,36.9557c0.0503-0.3278,0.0832-0.6363,0.0986-0.9245c0.0145-0.2872,0.0425-0.5493,0.0832-0.7852
				h1.1198c-0.03,0.1953-0.0532,0.3907-0.0677,0.585c-0.0155,0.1953-0.0377,0.3955-0.0686,0.6015h0.0309
				c0.1006-0.175,0.234-0.3443,0.4003-0.5086s0.3607-0.3104,0.5831-0.439c0.2215-0.1286,0.4642-0.2311,0.7262-0.3085
				c0.2621-0.0764,0.5396-0.1151,0.8326-0.1151c0.0803,0,0.1615,0.0048,0.2418,0.0155c0.0812,0.0097,0.1615,0.0309,0.2427,0.0609
				l-0.2427,1.2175c-0.2021-0.0619-0.4139-0.0928-0.6353-0.0928c-0.7262,0-1.2861,0.2388-1.6797,0.7165s-0.646,1.1324-0.7572,1.964
				l-0.469,3.5131h-1.1807L183.0208,36.9557z"/>
			<path class="st0" d="M189.196,30.8095h1.1797l-1.0444,7.6103l3.663-3.1737h1.6797l-3.8738,3.281l3.2385,3.9289h-1.7406
				l-2.9967-3.7897l-0.5144,3.7897h-1.1807L189.196,30.8095z"/>
		</g>
	</g>
</g>
</svg>
