<svg width="182" height="87" viewBox="0 0 182 87" fill="none" xmlns="http://www.w3.org/2000/svg">
<path d="M2.48597 34.7017H0V66.9656H2.48597V34.7017Z" fill="#EF0F44"/>
<path d="M2.48597 72.3403H0V81.3022H2.48597V72.3403Z" fill="#BB162B"/>
<path d="M2.48597 0H0V29.3225H2.48597V0Z" fill="#FF8440"/>
<path d="M7.28114 76.8223H4.79517V81.3032H7.28114V76.8223Z" fill="#BB162B"/>
<path d="M7.28114 13.8594H4.79517V40.8426H7.28114V13.8594Z" fill="#FF8440"/>
<path d="M7.28114 45.3418H4.79517V72.325H7.28114V45.3418Z" fill="#EF0F44"/>
<path d="M7.28114 4.88184H4.79517V9.36277H7.28114V4.88184Z" fill="#FF8440"/>
<path d="M12.0765 72.3403H9.59058V81.3022H12.0765V72.3403Z" fill="#BB162B"/>
<path d="M12.0765 9.72461H9.59058V29.3233H12.0765V9.72461Z" fill="#FF8440"/>
<path d="M12.0765 34.7017H9.59058V66.9656H12.0765V34.7017Z" fill="#EF0F44"/>
<path d="M16.8719 76.8223H14.3867V81.3032H16.8719V76.8223Z" fill="#BB162B"/>
<path d="M16.8719 43.0625H14.3867V71.9995H16.8719V43.0625Z" fill="#EF0F44"/>
<path d="M16.8719 9.30273H14.3867V38.2398H16.8719V9.30273Z" fill="#FF8440"/>
<path d="M16.8719 0H14.3867V4.48094H16.8719V0Z" fill="#FF8440"/>
<path d="M21.6688 72.3403H19.1829V81.3022H21.6688V72.3403Z" fill="#BB162B"/>
<path d="M21.6688 4.88477H19.1829V29.322H21.6688V4.88477Z" fill="#FF8440"/>
<path d="M21.6688 34.7017H19.1829V66.9656H21.6688V34.7017Z" fill="#EF0F44"/>
<mask id="mask0_3091_59" style="mask-type:luminance" maskUnits="userSpaceOnUse" x="28" y="60" width="154" height="27">
<path d="M181.5 60.7334H28.4446V86.9998H181.5V60.7334Z" fill="white"/>
</mask>
<g mask="url(#mask0_3091_59)">
<path d="M28.4462 64.1718H31.9037V60.7736H28.4462V64.1718ZM84.243 79.9859C83.8356 79.493 83.509 78.9369 83.2763 78.3397L83.2094 78.1683C83.1204 78.197 83.0314 78.2257 82.9457 78.252C82.3481 78.4373 81.8778 78.5456 81.5309 78.562C81.4843 78.5661 81.4394 78.5661 81.3929 78.5661C81.2998 78.5661 81.2206 78.562 81.1169 78.5522C81.0173 78.5423 80.9226 78.5153 80.8067 78.4931C80.3389 78.4094 80.0042 78.1166 79.7772 77.8205C79.5339 77.5031 79.3862 77.0101 79.329 76.3416C79.3192 76.2826 79.3086 76.2194 79.3029 76.1563C79.2865 76.0176 79.2784 75.8774 79.2784 75.7281C79.2784 75.6116 79.2841 75.4976 79.2923 75.3836L79.2963 70.6328L79.3021 64.3072V60.8892H76.025V64.3072L76.0332 70.6328H76.025V76.65C76.025 78.1068 76.4022 79.2313 77.1541 80.0196C77.7199 80.6167 78.4693 80.985 79.4041 81.1343C79.7103 81.181 80.0368 81.2056 80.3814 81.2056C80.5904 81.2056 80.7928 81.2015 80.9896 81.1958C81.0484 81.1941 81.1047 81.19 81.1635 81.19C81.1961 81.1884 81.2304 81.1884 81.2631 81.1859C81.2892 81.1843 81.3161 81.1818 81.3398 81.1794C81.8811 81.1326 82.491 81.0818 83.1882 80.939C83.2061 80.9349 83.2249 80.9308 83.2429 80.9267C83.5425 80.8677 84.3336 80.5986 84.6675 80.4969H84.6659L84.2422 79.9859H84.243ZM140.04 66.3233C138.48 66.3233 137.261 66.7474 136.384 67.5906V66.311H133.133V81.204H136.41V70.4745C136.716 70.0734 137.141 69.7371 137.688 69.4664C138.235 69.1974 138.748 69.0612 139.229 69.0612C140.268 69.0612 141.019 69.3385 141.477 69.888C141.935 70.4359 142.164 71.3079 142.164 72.5038V81.2064H145.441V72.0067L145.443 72.001C145.443 70.212 144.96 68.8209 143.994 67.821C143.027 66.8228 141.708 66.3241 140.04 66.3241V66.3233ZM179.971 67.8161L179.97 67.8145C178.95 66.8204 177.345 66.3217 175.152 66.3217C174.001 66.3217 172.962 66.4685 172.039 66.7572C171.765 66.8425 171.502 66.9483 171.245 67.0549C170.671 67.2912 169.939 67.8309 169.582 68.0999C169.481 68.1754 169.408 68.2303 169.38 68.2484C169.376 68.2525 169.374 68.2525 169.372 68.2541L171.392 69.9979C171.392 69.9979 171.423 69.9815 171.451 69.9635C171.583 69.8864 171.885 69.6928 171.931 69.6723C172.023 69.6313 172.116 69.5927 172.211 69.5558C172.495 69.4476 172.805 69.3606 173.13 69.2909C173.673 69.1785 174.273 69.1219 174.925 69.1219C177.061 69.1219 178.133 69.9676 178.133 71.654C177.596 71.5195 177.133 71.4547 176.737 71.4547C174.439 71.4547 172.666 71.923 171.418 72.8606C170.169 73.7997 169.547 75.0973 169.547 76.7575C169.547 78.1757 169.989 79.2731 170.876 80.045C171.762 80.8168 172.978 81.204 174.524 81.204C175.347 81.204 176.137 81.0432 176.891 80.7291C177.602 80.4313 178.113 80.0507 178.423 79.5906V81.204H181.5V73.4774C181.5 70.6984 180.988 68.8143 179.971 67.8161ZM178.16 75.5206H178.158V75.5247C178.158 77.5334 177.153 78.5374 175.138 78.5374C173.644 78.5374 172.9 77.896 172.9 76.6082C172.9 74.8767 174.224 74.0064 176.869 74.0064C177.155 74.0064 177.584 74.0655 178.16 74.182V75.5206ZM28.4446 81.2064H31.9021V66.562H28.4446V81.2064ZM163.586 64.1718H167.043V60.7736H163.586V64.1718ZM163.584 81.2064H167.042V66.562H163.584V81.2064ZM41.1422 66.4595C39.5976 66.4595 38.3876 66.8852 37.5125 67.739V66.5349H34.2354V81.2064H37.5125V70.7435C37.8186 70.326 38.244 69.9799 38.791 69.7002C39.3363 69.4213 39.849 69.2802 40.3291 69.2802C41.3684 69.2802 42.1186 69.5657 42.5766 70.1341C43.0347 70.7001 43.2657 71.6007 43.2657 72.8376V81.2064H46.5428V72.3249L46.5444 72.3266C46.5444 70.4786 46.0603 69.0407 45.0953 68.0081C44.1286 66.9754 42.811 66.4595 41.1414 66.4595H41.1422ZM57.9635 78.4824L57.8443 78.0813C57.7529 78.1101 57.5014 78.2298 57.4165 78.2569C56.8189 78.4423 56.3487 78.5505 56.0017 78.5661C55.9527 78.5702 55.9103 78.5702 55.8637 78.5702C55.7707 78.5702 55.6915 78.5677 55.5902 78.5563C55.489 78.5464 55.3959 78.5218 55.2784 78.4988C54.8106 78.4152 54.4758 78.1199 54.2489 77.8246C54.0056 77.5072 53.8578 77.0142 53.8007 76.3457C53.7827 76.1464 53.7745 75.9299 53.7745 75.6977V69.5583H58.424L55.7894 66.9286H53.777V60.7334H50.4999V66.9262H48.8744V69.5558H50.4999V76.6509C50.4999 78.1076 50.8771 79.2321 51.629 80.0204C52.3809 80.8111 53.4569 81.2064 54.8555 81.2064C55.0645 81.2064 55.2669 81.2023 55.4637 81.1966C55.5225 81.195 55.5796 81.1925 55.6384 81.1909C55.6711 81.1868 55.7053 81.1868 55.738 81.1868C56.4956 81.1523 57.1381 81.0703 57.6631 80.9399C57.6811 80.9358 57.6998 80.9317 57.7178 80.9276C58.0182 80.8685 59.033 80.5002 59.3735 80.396L58.7938 79.8727C58.4068 79.3675 58.188 79.0558 57.9652 78.4833L57.9635 78.4824ZM59.3743 80.3977L59.3784 80.3936C59.3784 80.3936 59.3743 80.3952 59.3718 80.3952L59.3743 80.3977ZM157.735 75.8446C157.584 76.3867 157.365 76.851 157.081 77.2357C156.471 78.0584 155.645 78.4685 154.608 78.4685C152.342 78.4685 151.207 76.8854 151.207 73.7243C151.207 72.2511 151.513 71.1044 152.127 70.2817C152.741 69.459 153.568 69.0489 154.608 69.0489C156.023 69.0489 156.993 69.6625 157.52 70.8887H161.081C160.787 69.8806 160.311 69.0169 159.658 68.2976C158.458 66.9754 156.774 66.3151 154.608 66.3151C152.442 66.3151 150.885 67.0016 149.628 68.3763C148.37 69.7535 147.742 71.5359 147.742 73.7234C147.742 75.911 148.346 77.7975 149.549 79.1608C150.753 80.524 152.439 81.204 154.608 81.204C156.776 81.204 158.402 80.5322 159.626 79.1813C160.443 78.279 160.986 77.1668 161.257 75.8446H157.735ZM66.8445 66.425C64.7814 66.425 63.1233 67.1074 61.8652 68.4739C60.6087 69.8405 59.9801 71.5375 59.9801 73.7825C59.9801 76.0275 60.5818 77.8263 61.786 79.1788C62.9902 80.5314 64.7226 81.2081 66.8445 81.2081C68.9663 81.2081 70.6408 80.5396 71.8629 79.1993C72.6793 78.3028 73.2247 77.1988 73.4925 75.8872H69.9746C69.8227 76.4269 69.6039 76.8854 69.3182 77.2701C68.7083 78.0871 67.8854 78.4947 66.8453 78.4947C64.5797 78.4947 63.4466 76.924 63.4466 73.7833C63.4466 73.6554 63.4482 73.529 63.4547 73.4068C63.5037 72.1232 63.805 71.1069 64.3666 70.3638C64.5291 70.148 64.7071 69.9602 64.9014 69.8019C65.4321 69.3598 66.0811 69.14 66.8453 69.14C68.6773 69.14 69.7656 70.1587 70.1125 72.1953H64.8981L64.8965 72.197H64.8826C64.7912 72.7105 64.6352 73.7718 64.7446 74.656H73.6639C73.686 74.3747 73.6966 74.0819 73.6966 73.7825C73.6966 71.5047 73.0965 69.7084 71.8972 68.3944C70.6971 67.0828 69.0153 66.4266 66.8469 66.4266L66.8445 66.425ZM91.9066 66.425C89.8436 66.425 88.1854 67.1074 86.9273 68.4739C85.6709 69.8405 85.0422 71.5375 85.0422 73.7825C85.0422 76.0275 85.6439 77.8263 86.8481 79.1788C88.0523 80.5314 89.7831 81.2081 91.9066 81.2081C94.0301 81.2081 95.7046 80.5396 96.9267 79.1993C97.7431 78.3028 98.2885 77.1988 98.5563 75.8872H95.0384C94.8865 76.4269 94.6677 76.8854 94.382 77.2701C93.7721 78.0871 92.9492 78.4947 91.9091 78.4947C89.6435 78.4947 88.5104 76.924 88.5104 73.7833C88.5104 73.6554 88.512 73.529 88.5185 73.4068C88.5675 72.1232 88.8688 71.1069 89.4305 70.3638C89.5929 70.148 89.7709 69.9602 89.9652 69.8019C90.4959 69.3598 91.1449 69.14 91.9091 69.14C93.7395 69.14 94.8277 70.1587 95.1739 72.1953L95.1723 72.197H89.8991C89.8076 72.7105 89.6517 73.7718 89.7611 74.656H98.7253C98.7473 74.3747 98.7579 74.0819 98.7579 73.7825C98.7579 71.5047 98.1579 69.7084 96.9586 68.3944C95.7585 67.0828 94.0766 66.4266 91.9083 66.4266L91.9066 66.425ZM123.944 66.425C121.881 66.425 120.223 67.1074 118.965 68.4739C117.71 69.8405 117.08 71.5375 117.08 73.7825C117.08 76.0275 117.682 77.8263 118.886 79.1788C120.09 80.5314 121.821 81.2081 123.944 81.2081C126.068 81.2081 127.742 80.5396 128.964 79.1993C129.781 78.3028 130.324 77.1988 130.594 75.8872H127.075C126.923 76.4269 126.704 76.8854 126.419 77.2701C125.809 78.0871 124.986 78.4947 123.946 78.4947C121.678 78.4947 120.547 76.924 120.547 73.7833C120.547 73.6554 120.549 73.529 120.555 73.4068C120.604 72.1232 120.906 71.1069 121.467 70.3638C121.63 70.148 121.808 69.9602 122.002 69.8019C122.533 69.3598 123.182 69.14 123.946 69.14C125.776 69.14 126.865 70.1587 127.211 72.1953H121.939L121.937 72.197H121.913C121.822 72.7105 121.666 73.7718 121.775 74.656H130.761C130.783 74.3747 130.794 74.0819 130.794 73.7825C130.794 71.5047 130.194 69.7084 128.995 68.3944C127.794 67.0828 126.113 66.4266 123.944 66.4266V66.425ZM111.134 67.4741C111.108 67.7677 111.085 68.0729 111.067 68.3911C111.049 68.7094 111.041 68.9759 111.041 69.1876H110.974C110.567 68.3214 110.001 67.6742 109.276 67.2502C108.561 66.8163 107.68 66.6005 106.637 66.6005C104.834 66.6005 103.46 67.2362 102.513 68.5117C101.566 69.7871 101.094 71.6064 101.094 73.9408C101.094 76.2752 101.552 78.0723 102.472 79.3289C103.392 80.5855 104.687 81.213 106.357 81.213C107.49 81.213 108.441 80.9973 109.209 80.5634C109.977 80.1213 110.565 79.4569 110.972 78.5735H110.998L110.972 80.7512C110.972 82.0062 110.733 82.9535 110.257 83.5909C109.779 84.2282 109.023 84.5464 107.989 84.5464C107.284 84.5464 106.708 84.3832 106.266 84.0551C105.833 83.727 105.549 83.2751 105.417 82.7001L101.692 83.1381C101.939 84.3766 102.594 85.3281 103.654 85.9917C104.724 86.6643 106.133 87.0006 107.884 87.0006H107.885C110.096 87.0006 111.781 86.4789 112.938 85.4339C114.095 84.3889 114.675 82.8444 114.675 80.8012V70.1964C114.675 68.9398 114.701 67.8333 114.754 66.8778H111.228C111.202 66.9836 111.169 67.1837 111.135 67.4749L111.134 67.4741ZM110.204 77.3907C109.683 78.2134 108.926 78.6252 107.936 78.6252C106.947 78.6252 106.204 78.2364 105.709 77.458C105.222 76.6697 104.979 75.5329 104.979 73.94C104.979 72.3471 105.226 71.1528 105.721 70.3564C106.226 69.5599 106.99 69.1629 107.963 69.1629C108.936 69.1629 109.684 69.5788 110.205 70.4097C110.736 71.2324 111.002 72.384 111.002 73.8604C111.002 75.3368 110.736 76.5598 110.205 77.3907H110.204Z" fill="#282728"/>
</g>
</svg>
